<svg width="40" height="40" viewBox="0 0 40 40" fill="none" xmlns="http://www.w3.org/2000/svg">
<mask id="path-1-inside-1_18_1039" fill="white">
<path d="M0 20C0 8.95431 8.95431 0 20 0C31.0457 0 40 8.95431 40 20C40 31.0457 31.0457 40 20 40C8.95431 40 0 31.0457 0 20Z"/>
</mask>
<path d="M0 20C0 8.95431 8.95431 0 20 0C31.0457 0 40 8.95431 40 20C40 31.0457 31.0457 40 20 40C8.95431 40 0 31.0457 0 20Z" fill="black" fill-opacity="0.3"/>
<path d="M20 40V39C9.50659 39 1 30.4934 1 20H0H-1C-1 31.598 8.40202 41 20 41V40ZM40 20H39C39 30.4934 30.4934 39 20 39V40V41C31.598 41 41 31.598 41 20H40ZM20 0V1C30.4934 1 39 9.50659 39 20H40H41C41 8.40202 31.598 -1 20 -1V0ZM20 0V-1C8.40202 -1 -1 8.40202 -1 20H0H1C1 9.50659 9.50659 1 20 1V0Z" fill="#00BC7D" mask="url(#path-1-inside-1_18_1039)"/>
<path d="M20 30C25.5228 30 30 25.5228 30 20C30 14.4772 25.5228 10 20 10C14.4772 10 10 14.4772 10 20C10 25.5228 14.4772 30 20 30Z" stroke="#00BC7D" stroke-width="2" stroke-linecap="round" stroke-linejoin="round"/>
<path d="M17 20L19 22L23 18" stroke="#00BC7D" stroke-width="2" stroke-linecap="round" stroke-linejoin="round"/>
</svg>
